<svg width="423" height="153" viewBox="0 0 423 153" fill="none" xmlns="http://www.w3.org/2000/svg">
<path d="M1 81.5V152H201" stroke="white" stroke-width="2"/>
<path d="M422 84.5V1H210.5" stroke="white" stroke-width="2"/>
<path d="M84.2 32.65L65 85H52.25L33.05 32.65H44.3L58.7 74.275L73.025 32.65H84.2ZM98.8203 38.5C96.9703 38.5 95.4203 37.925 94.1703 36.775C92.9703 35.575 92.3703 34.1 92.3703 32.35C92.3703 30.6 92.9703 29.15 94.1703 28C95.4203 26.8 96.9703 26.2 98.8203 26.2C100.67 26.2 102.195 26.8 103.395 28C104.645 29.15 105.27 30.6 105.27 32.35C105.27 34.1 104.645 35.575 103.395 36.775C102.195 37.925 100.67 38.5 98.8203 38.5ZM103.995 43.45V85H93.4953V43.45H103.995ZM133.269 85.675C129.869 85.675 126.819 85.075 124.119 83.875C121.419 82.625 119.269 80.95 117.669 78.85C116.119 76.75 115.269 74.425 115.119 71.875H125.694C125.894 73.475 126.669 74.8 128.019 75.85C129.419 76.9 131.144 77.425 133.194 77.425C135.194 77.425 136.744 77.025 137.844 76.225C138.994 75.425 139.569 74.4 139.569 73.15C139.569 71.8 138.869 70.8 137.469 70.15C136.119 69.45 133.944 68.7 130.944 67.9C127.844 67.15 125.294 66.375 123.294 65.575C121.344 64.775 119.644 63.55 118.194 61.9C116.794 60.25 116.094 58.025 116.094 55.225C116.094 52.925 116.744 50.825 118.044 48.925C119.394 47.025 121.294 45.525 123.744 44.425C126.244 43.325 129.169 42.775 132.519 42.775C137.469 42.775 141.419 44.025 144.369 46.525C147.319 48.975 148.944 52.3 149.244 56.5H139.194C139.044 54.85 138.344 53.55 137.094 52.6C135.894 51.6 134.269 51.1 132.219 51.1C130.319 51.1 128.844 51.45 127.794 52.15C126.794 52.85 126.294 53.825 126.294 55.075C126.294 56.475 126.994 57.55 128.394 58.3C129.794 59 131.969 59.725 134.919 60.475C137.919 61.225 140.394 62 142.344 62.8C144.294 63.6 145.969 64.85 147.369 66.55C148.819 68.2 149.569 70.4 149.619 73.15C149.619 75.55 148.944 77.7 147.594 79.6C146.294 81.5 144.394 83 141.894 84.1C139.444 85.15 136.569 85.675 133.269 85.675Z" fill="white"/>
<mask id="path-4-outside-1_11_25" maskUnits="userSpaceOnUse" x="153" y="26" width="242" height="63" fill="black">
<rect fill="white" x="153" y="26" width="242" height="63"/>
<path d="M209.2 32.65L190 85H177.25L158.05 32.65H169.3L183.7 74.275L198.025 32.65H209.2ZM215.795 64.075C215.795 59.875 216.62 56.15 218.27 52.9C219.97 49.65 222.245 47.15 225.095 45.4C227.995 43.65 231.22 42.775 234.77 42.775C237.87 42.775 240.57 43.4 242.87 44.65C245.22 45.9 247.095 47.475 248.495 49.375V43.45H259.07V85H248.495V78.925C247.145 80.875 245.27 82.5 242.87 83.8C240.52 85.05 237.795 85.675 234.695 85.675C231.195 85.675 227.995 84.775 225.095 82.975C222.245 81.175 219.97 78.65 218.27 75.4C216.62 72.1 215.795 68.325 215.795 64.075ZM248.495 64.225C248.495 61.675 247.995 59.5 246.995 57.7C245.995 55.85 244.645 54.45 242.945 53.5C241.245 52.5 239.42 52 237.47 52C235.52 52 233.72 52.475 232.07 53.425C230.42 54.375 229.07 55.775 228.02 57.625C227.02 59.425 226.52 61.575 226.52 64.075C226.52 66.575 227.02 68.775 228.02 70.675C229.07 72.525 230.42 73.95 232.07 74.95C233.77 75.95 235.57 76.45 237.47 76.45C239.42 76.45 241.245 75.975 242.945 75.025C244.645 74.025 245.995 72.625 246.995 70.825C247.995 68.975 248.495 66.775 248.495 64.225ZM311.55 43.45V85H300.975V79.75C299.625 81.55 297.85 82.975 295.65 84.025C293.5 85.025 291.15 85.525 288.6 85.525C285.35 85.525 282.475 84.85 279.975 83.5C277.475 82.1 275.5 80.075 274.05 77.425C272.65 74.725 271.95 71.525 271.95 67.825V43.45H282.45V66.325C282.45 69.625 283.275 72.175 284.925 73.975C286.575 75.725 288.825 76.6 291.675 76.6C294.575 76.6 296.85 75.725 298.5 73.975C300.15 72.175 300.975 69.625 300.975 66.325V43.45H311.55ZM335.41 29.5V85H324.91V29.5H335.41ZM361.009 52.075V72.175C361.009 73.575 361.334 74.6 361.984 75.25C362.684 75.85 363.834 76.15 365.434 76.15H370.309V85H363.709C354.859 85 350.434 80.7 350.434 72.1V52.075H345.484V43.45H350.434V33.175H361.009V43.45H370.309V52.075H361.009ZM385.512 85.525C383.612 85.525 382.037 84.95 380.787 83.8C379.587 82.6 378.987 81.125 378.987 79.375C378.987 77.625 379.587 76.175 380.787 75.025C382.037 73.825 383.612 73.225 385.512 73.225C387.362 73.225 388.887 73.825 390.087 75.025C391.287 76.175 391.887 77.625 391.887 79.375C391.887 81.125 391.287 82.6 390.087 83.8C388.887 84.95 387.362 85.525 385.512 85.525Z"/>
</mask>
<path d="M209.2 32.65L212.017 33.683L213.496 29.65H209.2V32.65ZM190 85V88H192.095L192.817 86.033L190 85ZM177.25 85L174.433 86.033L175.155 88H177.25V85ZM158.05 32.65V29.65H153.754L155.233 33.683L158.05 32.65ZM169.3 32.65L172.135 31.6692L171.437 29.65H169.3V32.65ZM183.7 74.275L180.865 75.2558L183.707 83.4725L186.537 75.2512L183.7 74.275ZM198.025 32.65V29.65H195.885L195.188 31.6738L198.025 32.65ZM206.383 31.617L187.183 83.967L192.817 86.033L212.017 33.683L206.383 31.617ZM190 82H177.25V88H190V82ZM180.067 83.967L160.867 31.617L155.233 33.683L174.433 86.033L180.067 83.967ZM158.05 35.65H169.3V29.65H158.05V35.65ZM166.465 33.6308L180.865 75.2558L186.535 73.2942L172.135 31.6692L166.465 33.6308ZM186.537 75.2512L200.862 33.6262L195.188 31.6738L180.863 73.2988L186.537 75.2512ZM198.025 35.65H209.2V29.65H198.025V35.65ZM218.27 52.9L215.612 51.5095L215.604 51.5257L215.595 51.5419L218.27 52.9ZM225.095 45.4L223.545 42.8314L223.535 42.8374L223.526 42.8435L225.095 45.4ZM242.87 44.65L241.438 47.2859L241.45 47.2923L241.461 47.2986L242.87 44.65ZM248.495 49.375L246.08 51.1546L251.495 58.5037V49.375H248.495ZM248.495 43.45V40.45H245.495V43.45H248.495ZM259.07 43.45H262.07V40.45H259.07V43.45ZM259.07 85V88H262.07V85H259.07ZM248.495 85H245.495V88H248.495V85ZM248.495 78.925H251.495V69.3212L246.029 77.2174L248.495 78.925ZM242.87 83.8L244.279 86.4486L244.289 86.4433L244.299 86.4379L242.87 83.8ZM225.095 82.975L223.493 85.5115L223.503 85.5177L223.513 85.5239L225.095 82.975ZM218.27 75.4L215.587 76.7416L215.599 76.7662L215.612 76.7905L218.27 75.4ZM246.995 57.7L244.356 59.1266L244.364 59.1418L244.373 59.1569L246.995 57.7ZM242.945 53.5L241.424 56.0858L241.453 56.1026L241.482 56.1188L242.945 53.5ZM232.07 53.425L230.573 50.8251L230.573 50.8251L232.07 53.425ZM228.02 57.625L225.411 56.1442L225.404 56.1561L225.398 56.1681L228.02 57.625ZM228.02 70.675L225.366 72.0722L225.388 72.1144L225.411 72.1558L228.02 70.675ZM232.07 74.95L230.515 77.5156L230.532 77.5258L230.549 77.5358L232.07 74.95ZM242.945 75.025L244.409 77.6438L244.438 77.6276L244.466 77.6108L242.945 75.025ZM246.995 70.825L249.618 72.2819L249.626 72.2668L249.634 72.2515L246.995 70.825ZM218.795 64.075C218.795 60.2748 219.539 57.0273 220.945 54.2581L215.595 51.5419C213.701 55.2726 212.795 59.4752 212.795 64.075H218.795ZM220.929 54.2905C222.403 51.4724 224.32 49.3962 226.665 47.9565L223.526 42.8435C220.17 44.9038 217.538 47.8276 215.612 51.5095L220.929 54.2905ZM226.645 47.9686C229.055 46.5147 231.739 45.775 234.77 45.775V39.775C230.701 39.775 226.936 40.7853 223.545 42.8314L226.645 47.9686ZM234.77 45.775C237.462 45.775 239.652 46.3153 241.438 47.2859L244.303 42.0141C241.489 40.4847 238.279 39.775 234.77 39.775V45.775ZM241.461 47.2986C243.466 48.3649 244.979 49.6596 246.08 51.1546L250.91 47.5954C249.212 45.2904 246.974 43.4351 244.279 42.0014L241.461 47.2986ZM251.495 49.375V43.45H245.495V49.375H251.495ZM248.495 46.45H259.07V40.45H248.495V46.45ZM256.07 43.45V85H262.07V43.45H256.07ZM259.07 82H248.495V88H259.07V82ZM251.495 85V78.925H245.495V85H251.495ZM246.029 77.2174C244.985 78.7255 243.49 80.0525 241.441 81.1621L244.299 86.4379C247.051 84.9475 249.306 83.0245 250.962 80.6326L246.029 77.2174ZM241.461 81.1514C239.612 82.1353 237.385 82.675 234.695 82.675V88.675C238.205 88.675 241.429 87.9647 244.279 86.4486L241.461 81.1514ZM234.695 82.675C231.739 82.675 229.09 81.9234 226.677 80.4261L223.513 85.5239C226.901 87.6266 230.651 88.675 234.695 88.675V82.675ZM226.697 80.4385C224.333 78.9454 222.406 76.8337 220.929 74.0095L215.612 76.7905C217.535 80.4663 220.158 83.4046 223.493 85.5115L226.697 80.4385ZM220.954 74.0584C219.541 71.234 218.795 67.9302 218.795 64.075H212.795C212.795 68.7198 213.699 72.966 215.587 76.7416L220.954 74.0584ZM251.495 64.225C251.495 61.2852 250.918 58.5831 249.618 56.2431L244.373 59.1569C245.073 60.4169 245.495 62.0648 245.495 64.225H251.495ZM249.634 56.2734C248.386 53.9642 246.646 52.1312 244.409 50.8812L241.482 56.1188C242.645 56.7688 243.604 57.7358 244.356 59.1266L249.634 56.2734ZM244.466 50.9142C242.311 49.6463 239.962 49 237.47 49V55C238.879 55 240.18 55.3537 241.424 56.0858L244.466 50.9142ZM237.47 49C235.008 49 232.69 49.6064 230.573 50.8251L233.567 56.0249C234.75 55.3436 236.032 55 237.47 55V49ZM230.573 50.8251C228.407 52.0726 226.694 53.8845 225.411 56.1442L230.629 59.1058C231.447 57.6655 232.434 56.6774 233.567 56.0249L230.573 50.8251ZM225.398 56.1681C224.102 58.4999 223.52 61.1737 223.52 64.075H229.52C229.52 61.9763 229.938 60.3501 230.643 59.0819L225.398 56.1681ZM223.52 64.075C223.52 66.9816 224.104 69.6756 225.366 72.0722L230.675 69.2778C229.936 67.8744 229.52 66.1684 229.52 64.075H223.52ZM225.411 72.1558C226.688 74.4047 228.383 76.2234 230.515 77.5156L233.625 72.3844C232.457 71.6766 231.453 70.6453 230.629 69.1942L225.411 72.1558ZM230.549 77.5358C232.692 78.7962 235.015 79.45 237.47 79.45V73.45C236.126 73.45 234.849 73.1038 233.591 72.3642L230.549 77.5358ZM237.47 79.45C239.932 79.45 242.261 78.8441 244.409 77.6438L241.482 72.4062C240.23 73.1059 238.909 73.45 237.47 73.45V79.45ZM244.466 77.6108C246.648 76.3273 248.37 74.5282 249.618 72.2819L244.373 69.3681C243.621 70.7218 242.642 71.7227 241.424 72.4392L244.466 77.6108ZM249.634 72.2515C250.917 69.8794 251.495 67.168 251.495 64.225H245.495C245.495 66.382 245.074 68.0706 244.356 69.3984L249.634 72.2515ZM311.55 43.45H314.55V40.45H311.55V43.45ZM311.55 85V88H314.55V85H311.55ZM300.975 85H297.975V88H300.975V85ZM300.975 79.75H303.975V70.75L298.575 77.95L300.975 79.75ZM295.65 84.025L296.916 86.7452L296.929 86.7389L296.943 86.7324L295.65 84.025ZM279.975 83.5L278.51 86.1175L278.53 86.1288L278.55 86.1397L279.975 83.5ZM274.05 77.425L271.387 78.806L271.403 78.8357L271.419 78.865L274.05 77.425ZM271.95 43.45V40.45H268.95V43.45H271.95ZM282.45 43.45H285.45V40.45H282.45V43.45ZM284.925 73.975L282.714 76.0022L282.728 76.0177L282.743 76.033L284.925 73.975ZM298.5 73.975L300.683 76.033L300.698 76.0177L300.712 76.0022L298.5 73.975ZM300.975 43.45V40.45H297.975V43.45H300.975ZM308.55 43.45V85H314.55V43.45H308.55ZM311.55 82H300.975V88H311.55V82ZM303.975 85V79.75H297.975V85H303.975ZM298.575 77.95C297.54 79.3307 296.158 80.4584 294.358 81.3176L296.943 86.7324C299.542 85.4916 301.711 83.7693 303.375 81.55L298.575 77.95ZM294.385 81.3048C292.661 82.1069 290.747 82.525 288.6 82.525V88.525C291.554 88.525 294.34 87.9431 296.916 86.7452L294.385 81.3048ZM288.6 82.525C285.776 82.525 283.403 81.9417 281.401 80.8603L278.55 86.1397C281.547 87.7583 284.925 88.525 288.6 88.525V82.525ZM281.441 80.8825C279.46 79.773 277.877 78.1689 276.682 75.985L271.419 78.865C273.124 81.9811 275.491 84.427 278.51 86.1175L281.441 80.8825ZM276.714 76.044C275.578 73.8535 274.95 71.1472 274.95 67.825H268.95C268.95 71.9028 269.723 75.5965 271.387 78.806L276.714 76.044ZM274.95 67.825V43.45H268.95V67.825H274.95ZM271.95 46.45H282.45V40.45H271.95V46.45ZM279.45 43.45V66.325H285.45V43.45H279.45ZM279.45 66.325C279.45 70.1079 280.401 73.479 282.714 76.0022L287.137 71.9478C286.15 70.871 285.45 69.1421 285.45 66.325H279.45ZM282.743 76.033C285.064 78.495 288.165 79.6 291.675 79.6V73.6C289.486 73.6 288.087 72.955 287.108 71.917L282.743 76.033ZM291.675 79.6C295.218 79.6 298.352 78.5058 300.683 76.033L296.318 71.917C295.349 72.9442 293.933 73.6 291.675 73.6V79.6ZM300.712 76.0022C303.025 73.479 303.975 70.1079 303.975 66.325H297.975C297.975 69.1421 297.276 70.871 296.289 71.9478L300.712 76.0022ZM303.975 66.325V43.45H297.975V66.325H303.975ZM300.975 46.45H311.55V40.45H300.975V46.45ZM335.41 29.5H338.41V26.5H335.41V29.5ZM335.41 85V88H338.41V85H335.41ZM324.91 85H321.91V88H324.91V85ZM324.91 29.5V26.5H321.91V29.5H324.91ZM332.41 29.5V85H338.41V29.5H332.41ZM335.41 82H324.91V88H335.41V82ZM327.91 85V29.5H321.91V85H327.91ZM324.91 32.5H335.41V26.5H324.91V32.5ZM361.009 52.075V49.075H358.009V52.075H361.009ZM361.984 75.25L359.863 77.3713L359.945 77.4528L360.032 77.5278L361.984 75.25ZM370.309 76.15H373.309V73.15H370.309V76.15ZM370.309 85V88H373.309V85H370.309ZM350.434 52.075H353.434V49.075H350.434V52.075ZM345.484 52.075H342.484V55.075H345.484V52.075ZM345.484 43.45V40.45H342.484V43.45H345.484ZM350.434 43.45V46.45H353.434V43.45H350.434ZM350.434 33.175V30.175H347.434V33.175H350.434ZM361.009 33.175H364.009V30.175H361.009V33.175ZM361.009 43.45H358.009V46.45H361.009V43.45ZM370.309 43.45H373.309V40.45H370.309V43.45ZM370.309 52.075V55.075H373.309V52.075H370.309ZM358.009 52.075V72.175H364.009V52.075H358.009ZM358.009 72.175C358.009 73.9619 358.416 75.9239 359.863 77.3713L364.106 73.1287C364.174 73.1969 364.155 73.2191 364.113 73.087C364.067 72.9409 364.009 72.6549 364.009 72.175H358.009ZM360.032 77.5278C361.553 78.8317 363.597 79.15 365.434 79.15V73.15C364.808 73.15 364.388 73.0898 364.129 73.0221C363.872 72.955 363.856 72.903 363.937 72.9722L360.032 77.5278ZM365.434 79.15H370.309V73.15H365.434V79.15ZM367.309 76.15V85H373.309V76.15H367.309ZM370.309 82H363.709V88H370.309V82ZM363.709 82C359.726 82 357.293 81.0315 355.844 79.6235C354.411 78.2311 353.434 75.9154 353.434 72.1H347.434C347.434 76.8846 348.67 81.0189 351.662 83.9265C354.639 86.8185 358.843 88 363.709 88V82ZM353.434 72.1V52.075H347.434V72.1H353.434ZM350.434 49.075H345.484V55.075H350.434V49.075ZM348.484 52.075V43.45H342.484V52.075H348.484ZM345.484 46.45H350.434V40.45H345.484V46.45ZM353.434 43.45V33.175H347.434V43.45H353.434ZM350.434 36.175H361.009V30.175H350.434V36.175ZM358.009 33.175V43.45H364.009V33.175H358.009ZM361.009 46.45H370.309V40.45H361.009V46.45ZM367.309 43.45V52.075H373.309V43.45H367.309ZM370.309 49.075H361.009V55.075H370.309V49.075ZM380.787 83.8L378.665 85.9213L378.709 85.9655L378.755 86.0078L380.787 83.8ZM380.787 75.025L382.862 77.191L382.864 77.1892L380.787 75.025ZM390.087 75.025L387.965 77.1463L387.988 77.1689L388.011 77.191L390.087 75.025ZM390.087 83.8L392.162 85.966L392.185 85.9439L392.208 85.9213L390.087 83.8ZM385.512 82.525C384.268 82.525 383.447 82.1711 382.818 81.5922L378.755 86.0078C380.626 87.7289 382.955 88.525 385.512 88.525V82.525ZM382.908 81.6787C382.29 81.0606 381.987 80.3571 381.987 79.375H375.987C375.987 81.8929 376.883 84.1394 378.665 85.9213L382.908 81.6787ZM381.987 79.375C381.987 78.3944 382.287 77.7425 382.862 77.191L378.711 72.859C376.886 74.6075 375.987 76.8556 375.987 79.375H381.987ZM382.864 77.1892C383.499 76.5795 384.304 76.225 385.512 76.225V70.225C382.919 70.225 380.574 71.0705 378.709 72.8608L382.864 77.1892ZM385.512 76.225C386.645 76.225 387.381 76.5624 387.965 77.1463L392.208 72.9037C390.392 71.0876 388.078 70.225 385.512 70.225V76.225ZM388.011 77.191C388.586 77.7425 388.887 78.3944 388.887 79.375H394.887C394.887 76.8556 393.987 74.6075 392.162 72.859L388.011 77.191ZM388.887 79.375C388.887 80.3571 388.583 81.0606 387.965 81.6787L392.208 85.9213C393.99 84.1394 394.887 81.8929 394.887 79.375H388.887ZM388.011 81.634C387.434 82.1864 386.683 82.525 385.512 82.525V88.525C388.04 88.525 390.339 87.7136 392.162 85.966L388.011 81.634Z" fill="white" mask="url(#path-4-outside-1_11_25)"/>
<path d="M40.472 121.126C39.632 121.126 38.876 120.982 38.204 120.694C37.532 120.394 37.004 119.974 36.62 119.434C36.236 118.894 36.044 118.264 36.044 117.544H38.24C38.288 118.084 38.498 118.528 38.87 118.876C39.254 119.224 39.788 119.398 40.472 119.398C41.18 119.398 41.732 119.23 42.128 118.894C42.524 118.546 42.722 118.102 42.722 117.562C42.722 117.142 42.596 116.8 42.344 116.536C42.104 116.272 41.798 116.068 41.426 115.924C41.066 115.78 40.562 115.624 39.914 115.456C39.098 115.24 38.432 115.024 37.916 114.808C37.412 114.58 36.98 114.232 36.62 113.764C36.26 113.296 36.08 112.672 36.08 111.892C36.08 111.172 36.26 110.542 36.62 110.002C36.98 109.462 37.484 109.048 38.132 108.76C38.78 108.472 39.53 108.328 40.382 108.328C41.594 108.328 42.584 108.634 43.352 109.246C44.132 109.846 44.564 110.674 44.648 111.73H42.38C42.344 111.274 42.128 110.884 41.732 110.56C41.336 110.236 40.814 110.074 40.166 110.074C39.578 110.074 39.098 110.224 38.726 110.524C38.354 110.824 38.168 111.256 38.168 111.82C38.168 112.204 38.282 112.522 38.51 112.774C38.75 113.014 39.05 113.206 39.41 113.35C39.77 113.494 40.262 113.65 40.886 113.818C41.714 114.046 42.386 114.274 42.902 114.502C43.43 114.73 43.874 115.084 44.234 115.564C44.606 116.032 44.792 116.662 44.792 117.454C44.792 118.09 44.618 118.69 44.27 119.254C43.934 119.818 43.436 120.274 42.776 120.622C42.128 120.958 41.36 121.126 40.472 121.126ZM47.2493 116.032C47.2493 115.012 47.4533 114.118 47.8613 113.35C48.2813 112.57 48.8573 111.97 49.5893 111.55C50.3213 111.13 51.1613 110.92 52.1093 110.92C53.3093 110.92 54.2993 111.208 55.0793 111.784C55.8713 112.348 56.4053 113.158 56.6813 114.214H54.4673C54.2873 113.722 53.9993 113.338 53.6033 113.062C53.2073 112.786 52.7093 112.648 52.1093 112.648C51.2693 112.648 50.5973 112.948 50.0933 113.548C49.6013 114.136 49.3553 114.964 49.3553 116.032C49.3553 117.1 49.6013 117.934 50.0933 118.534C50.5973 119.134 51.2693 119.434 52.1093 119.434C53.2973 119.434 54.0833 118.912 54.4673 117.868H56.6813C56.3933 118.876 55.8533 119.68 55.0613 120.28C54.2693 120.868 53.2853 121.162 52.1093 121.162C51.1613 121.162 50.3213 120.952 49.5893 120.532C48.8573 120.1 48.2813 119.5 47.8613 118.732C47.4533 117.952 47.2493 117.052 47.2493 116.032ZM68.4283 111.082V121H66.3763V119.83C66.0523 120.238 65.6263 120.562 65.0983 120.802C64.5823 121.03 64.0303 121.144 63.4423 121.144C62.6623 121.144 61.9603 120.982 61.3363 120.658C60.7243 120.334 60.2383 119.854 59.8783 119.218C59.5303 118.582 59.3563 117.814 59.3563 116.914V111.082H61.3903V116.608C61.3903 117.496 61.6123 118.18 62.0563 118.66C62.5003 119.128 63.1063 119.362 63.8743 119.362C64.6423 119.362 65.2483 119.128 65.6923 118.66C66.1483 118.18 66.3763 117.496 66.3763 116.608V111.082H68.4283ZM73.9077 107.68V121H71.8557V107.68H73.9077ZM79.3738 112.54C79.7218 112.084 80.1958 111.7 80.7958 111.388C81.3958 111.076 82.0738 110.92 82.8298 110.92C83.6938 110.92 84.4798 111.136 85.1878 111.568C85.9078 111.988 86.4718 112.582 86.8798 113.35C87.2878 114.118 87.4918 115 87.4918 115.996C87.4918 116.992 87.2878 117.886 86.8798 118.678C86.4718 119.458 85.9078 120.07 85.1878 120.514C84.4798 120.946 83.6938 121.162 82.8298 121.162C82.0738 121.162 81.4018 121.012 80.8138 120.712C80.2258 120.4 79.7458 120.016 79.3738 119.56V125.716H77.3218V111.082H79.3738V112.54ZM85.4038 115.996C85.4038 115.312 85.2598 114.724 84.9718 114.232C84.6958 113.728 84.3238 113.35 83.8558 113.098C83.3998 112.834 82.9078 112.702 82.3798 112.702C81.8638 112.702 81.3718 112.834 80.9038 113.098C80.4478 113.362 80.0758 113.746 79.7878 114.25C79.5118 114.754 79.3738 115.348 79.3738 116.032C79.3738 116.716 79.5118 117.316 79.7878 117.832C80.0758 118.336 80.4478 118.72 80.9038 118.984C81.3718 119.248 81.8638 119.38 82.3798 119.38C82.9078 119.38 83.3998 119.248 83.8558 118.984C84.3238 118.708 84.6958 118.312 84.9718 117.796C85.2598 117.28 85.4038 116.68 85.4038 115.996ZM92.635 112.756V118.246C92.635 118.618 92.719 118.888 92.887 119.056C93.067 119.212 93.367 119.29 93.787 119.29H95.047V121H93.427C92.503 121 91.795 120.784 91.303 120.352C90.811 119.92 90.565 119.218 90.565 118.246V112.756H89.395V111.082H90.565V108.616H92.635V111.082H95.047V112.756H92.635ZM98.7023 109.768C98.3303 109.768 98.0183 109.642 97.7663 109.39C97.5143 109.138 97.3883 108.826 97.3883 108.454C97.3883 108.082 97.5143 107.77 97.7663 107.518C98.0183 107.266 98.3303 107.14 98.7023 107.14C99.0623 107.14 99.3683 107.266 99.6203 107.518C99.8723 107.77 99.9983 108.082 99.9983 108.454C99.9983 108.826 99.8723 109.138 99.6203 109.39C99.3683 109.642 99.0623 109.768 98.7023 109.768ZM99.7103 111.082V121H97.6583V111.082H99.7103ZM108.128 110.92C108.908 110.92 109.604 111.082 110.216 111.406C110.84 111.73 111.326 112.21 111.674 112.846C112.022 113.482 112.196 114.25 112.196 115.15V121H110.162V115.456C110.162 114.568 109.94 113.89 109.496 113.422C109.052 112.942 108.446 112.702 107.678 112.702C106.91 112.702 106.298 112.942 105.842 113.422C105.398 113.89 105.176 114.568 105.176 115.456V121H103.124V111.082H105.176V112.216C105.512 111.808 105.938 111.49 106.454 111.262C106.982 111.034 107.54 110.92 108.128 110.92ZM119.53 110.92C120.298 110.92 120.976 111.076 121.564 111.388C122.164 111.688 122.632 112.066 122.968 112.522V111.082H125.038V121.162C125.038 122.074 124.846 122.884 124.462 123.592C124.078 124.312 123.52 124.876 122.788 125.284C122.068 125.692 121.204 125.896 120.196 125.896C118.852 125.896 117.736 125.578 116.848 124.942C115.96 124.318 115.456 123.466 115.336 122.386H117.37C117.526 122.902 117.856 123.316 118.36 123.628C118.876 123.952 119.488 124.114 120.196 124.114C121.024 124.114 121.69 123.862 122.194 123.358C122.71 122.854 122.968 122.122 122.968 121.162V119.506C122.62 119.974 122.146 120.37 121.546 120.694C120.958 121.006 120.286 121.162 119.53 121.162C118.666 121.162 117.874 120.946 117.154 120.514C116.446 120.07 115.882 119.458 115.462 118.678C115.054 117.886 114.85 116.992 114.85 115.996C114.85 115 115.054 114.118 115.462 113.35C115.882 112.582 116.446 111.988 117.154 111.568C117.874 111.136 118.666 110.92 119.53 110.92ZM122.968 116.032C122.968 115.348 122.824 114.754 122.536 114.25C122.26 113.746 121.894 113.362 121.438 113.098C120.982 112.834 120.49 112.702 119.962 112.702C119.434 112.702 118.942 112.834 118.486 113.098C118.03 113.35 117.658 113.728 117.37 114.232C117.094 114.724 116.956 115.312 116.956 115.996C116.956 116.68 117.094 117.28 117.37 117.796C117.658 118.312 118.03 118.708 118.486 118.984C118.954 119.248 119.446 119.38 119.962 119.38C120.49 119.38 120.982 119.248 121.438 118.984C121.894 118.72 122.26 118.336 122.536 117.832C122.824 117.316 122.968 116.716 122.968 116.032ZM144.631 108.49L139.933 121H137.557L132.841 108.49H135.037L138.745 118.894L142.471 108.49H144.631ZM148.111 109.768C147.739 109.768 147.427 109.642 147.175 109.39C146.923 109.138 146.797 108.826 146.797 108.454C146.797 108.082 146.923 107.77 147.175 107.518C147.427 107.266 147.739 107.14 148.111 107.14C148.471 107.14 148.777 107.266 149.029 107.518C149.281 107.77 149.407 108.082 149.407 108.454C149.407 108.826 149.281 109.138 149.029 109.39C148.777 109.642 148.471 109.768 148.111 109.768ZM149.119 111.082V121H147.067V111.082H149.119ZM156.133 121.162C155.353 121.162 154.651 121.024 154.027 120.748C153.415 120.46 152.929 120.076 152.569 119.596C152.209 119.104 152.017 118.558 151.993 117.958H154.117C154.153 118.378 154.351 118.732 154.711 119.02C155.083 119.296 155.545 119.434 156.097 119.434C156.673 119.434 157.117 119.326 157.429 119.11C157.753 118.882 157.915 118.594 157.915 118.246C157.915 117.874 157.735 117.598 157.375 117.418C157.027 117.238 156.469 117.04 155.701 116.824C154.957 116.62 154.351 116.422 153.883 116.23C153.415 116.038 153.007 115.744 152.659 115.348C152.323 114.952 152.155 114.43 152.155 113.782C152.155 113.254 152.311 112.774 152.623 112.342C152.935 111.898 153.379 111.55 153.955 111.298C154.543 111.046 155.215 110.92 155.971 110.92C157.099 110.92 158.005 111.208 158.689 111.784C159.385 112.348 159.757 113.122 159.805 114.106H157.753C157.717 113.662 157.537 113.308 157.213 113.044C156.889 112.78 156.451 112.648 155.899 112.648C155.359 112.648 154.945 112.75 154.657 112.954C154.369 113.158 154.225 113.428 154.225 113.764C154.225 114.028 154.321 114.25 154.513 114.43C154.705 114.61 154.939 114.754 155.215 114.862C155.491 114.958 155.899 115.084 156.439 115.24C157.159 115.432 157.747 115.63 158.203 115.834C158.671 116.026 159.073 116.314 159.409 116.698C159.745 117.082 159.919 117.592 159.931 118.228C159.931 118.792 159.775 119.296 159.463 119.74C159.151 120.184 158.707 120.532 158.131 120.784C157.567 121.036 156.901 121.162 156.133 121.162ZM163.912 109.768C163.54 109.768 163.228 109.642 162.976 109.39C162.724 109.138 162.598 108.826 162.598 108.454C162.598 108.082 162.724 107.77 162.976 107.518C163.228 107.266 163.54 107.14 163.912 107.14C164.272 107.14 164.578 107.266 164.83 107.518C165.082 107.77 165.208 108.082 165.208 108.454C165.208 108.826 165.082 109.138 164.83 109.39C164.578 109.642 164.272 109.768 163.912 109.768ZM164.92 111.082V121H162.868V111.082H164.92ZM172.636 121.162C171.7 121.162 170.854 120.952 170.098 120.532C169.342 120.1 168.748 119.5 168.316 118.732C167.884 117.952 167.668 117.052 167.668 116.032C167.668 115.024 167.89 114.13 168.334 113.35C168.778 112.57 169.384 111.97 170.152 111.55C170.92 111.13 171.778 110.92 172.726 110.92C173.674 110.92 174.532 111.13 175.3 111.55C176.068 111.97 176.674 112.57 177.118 113.35C177.562 114.13 177.784 115.024 177.784 116.032C177.784 117.04 177.556 117.934 177.1 118.714C176.644 119.494 176.02 120.1 175.228 120.532C174.448 120.952 173.584 121.162 172.636 121.162ZM172.636 119.38C173.164 119.38 173.656 119.254 174.112 119.002C174.58 118.75 174.958 118.372 175.246 117.868C175.534 117.364 175.678 116.752 175.678 116.032C175.678 115.312 175.54 114.706 175.264 114.214C174.988 113.71 174.622 113.332 174.166 113.08C173.71 112.828 173.218 112.702 172.69 112.702C172.162 112.702 171.67 112.828 171.214 113.08C170.77 113.332 170.416 113.71 170.152 114.214C169.888 114.706 169.756 115.312 169.756 116.032C169.756 117.1 170.026 117.928 170.566 118.516C171.118 119.092 171.808 119.38 172.636 119.38ZM185.537 110.92C186.317 110.92 187.013 111.082 187.625 111.406C188.249 111.73 188.735 112.21 189.083 112.846C189.431 113.482 189.605 114.25 189.605 115.15V121H187.571V115.456C187.571 114.568 187.349 113.89 186.905 113.422C186.461 112.942 185.855 112.702 185.087 112.702C184.319 112.702 183.707 112.942 183.251 113.422C182.807 113.89 182.585 114.568 182.585 115.456V121H180.533V111.082H182.585V112.216C182.921 111.808 183.347 111.49 183.863 111.262C184.391 111.034 184.949 110.92 185.537 110.92ZM196.542 121.162C195.762 121.162 195.06 121.024 194.436 120.748C193.824 120.46 193.338 120.076 192.978 119.596C192.618 119.104 192.426 118.558 192.402 117.958H194.526C194.562 118.378 194.76 118.732 195.12 119.02C195.492 119.296 195.954 119.434 196.506 119.434C197.082 119.434 197.526 119.326 197.838 119.11C198.162 118.882 198.324 118.594 198.324 118.246C198.324 117.874 198.144 117.598 197.784 117.418C197.436 117.238 196.878 117.04 196.11 116.824C195.366 116.62 194.76 116.422 194.292 116.23C193.824 116.038 193.416 115.744 193.068 115.348C192.732 114.952 192.564 114.43 192.564 113.782C192.564 113.254 192.72 112.774 193.032 112.342C193.344 111.898 193.788 111.55 194.364 111.298C194.952 111.046 195.624 110.92 196.38 110.92C197.508 110.92 198.414 111.208 199.098 111.784C199.794 112.348 200.166 113.122 200.214 114.106H198.162C198.126 113.662 197.946 113.308 197.622 113.044C197.298 112.78 196.86 112.648 196.308 112.648C195.768 112.648 195.354 112.75 195.066 112.954C194.778 113.158 194.634 113.428 194.634 113.764C194.634 114.028 194.73 114.25 194.922 114.43C195.114 114.61 195.348 114.754 195.624 114.862C195.9 114.958 196.308 115.084 196.848 115.24C197.568 115.432 198.156 115.63 198.612 115.834C199.08 116.026 199.482 116.314 199.818 116.698C200.154 117.082 200.328 117.592 200.34 118.228C200.34 118.792 200.184 119.296 199.872 119.74C199.56 120.184 199.116 120.532 198.54 120.784C197.976 121.036 197.31 121.162 196.542 121.162ZM205.528 118.534L203.35 123.502H202.018L203.296 118.534H205.528ZM217.558 121.126C216.718 121.126 215.962 120.982 215.29 120.694C214.618 120.394 214.09 119.974 213.706 119.434C213.322 118.894 213.13 118.264 213.13 117.544H215.326C215.374 118.084 215.584 118.528 215.956 118.876C216.34 119.224 216.874 119.398 217.558 119.398C218.266 119.398 218.818 119.23 219.214 118.894C219.61 118.546 219.808 118.102 219.808 117.562C219.808 117.142 219.682 116.8 219.43 116.536C219.19 116.272 218.884 116.068 218.512 115.924C218.152 115.78 217.648 115.624 217 115.456C216.184 115.24 215.518 115.024 215.002 114.808C214.498 114.58 214.066 114.232 213.706 113.764C213.346 113.296 213.166 112.672 213.166 111.892C213.166 111.172 213.346 110.542 213.706 110.002C214.066 109.462 214.57 109.048 215.218 108.76C215.866 108.472 216.616 108.328 217.468 108.328C218.68 108.328 219.67 108.634 220.438 109.246C221.218 109.846 221.65 110.674 221.734 111.73H219.466C219.43 111.274 219.214 110.884 218.818 110.56C218.422 110.236 217.9 110.074 217.252 110.074C216.664 110.074 216.184 110.224 215.812 110.524C215.44 110.824 215.254 111.256 215.254 111.82C215.254 112.204 215.368 112.522 215.596 112.774C215.836 113.014 216.136 113.206 216.496 113.35C216.856 113.494 217.348 113.65 217.972 113.818C218.8 114.046 219.472 114.274 219.988 114.502C220.516 114.73 220.96 115.084 221.32 115.564C221.692 116.032 221.878 116.662 221.878 117.454C221.878 118.09 221.704 118.69 221.356 119.254C221.02 119.818 220.522 120.274 219.862 120.622C219.214 120.958 218.446 121.126 217.558 121.126ZM234.11 115.798C234.11 116.17 234.086 116.506 234.038 116.806H226.46C226.52 117.598 226.814 118.234 227.342 118.714C227.87 119.194 228.518 119.434 229.286 119.434C230.39 119.434 231.17 118.972 231.626 118.048H233.84C233.54 118.96 232.994 119.71 232.202 120.298C231.422 120.874 230.45 121.162 229.286 121.162C228.338 121.162 227.486 120.952 226.73 120.532C225.986 120.1 225.398 119.5 224.966 118.732C224.546 117.952 224.336 117.052 224.336 116.032C224.336 115.012 224.54 114.118 224.948 113.35C225.368 112.57 225.95 111.97 226.694 111.55C227.45 111.13 228.314 110.92 229.286 110.92C230.222 110.92 231.056 111.124 231.788 111.532C232.52 111.94 233.09 112.516 233.498 113.26C233.906 113.992 234.11 114.838 234.11 115.798ZM231.968 115.15C231.956 114.394 231.686 113.788 231.158 113.332C230.63 112.876 229.976 112.648 229.196 112.648C228.488 112.648 227.882 112.876 227.378 113.332C226.874 113.776 226.574 114.382 226.478 115.15H231.968ZM236.165 116.032C236.165 115.012 236.369 114.118 236.777 113.35C237.197 112.57 237.773 111.97 238.505 111.55C239.237 111.13 240.077 110.92 241.025 110.92C242.225 110.92 243.215 111.208 243.995 111.784C244.787 112.348 245.321 113.158 245.597 114.214H243.383C243.203 113.722 242.915 113.338 242.519 113.062C242.123 112.786 241.625 112.648 241.025 112.648C240.185 112.648 239.513 112.948 239.009 113.548C238.517 114.136 238.271 114.964 238.271 116.032C238.271 117.1 238.517 117.934 239.009 118.534C239.513 119.134 240.185 119.434 241.025 119.434C242.213 119.434 242.999 118.912 243.383 117.868H245.597C245.309 118.876 244.769 119.68 243.977 120.28C243.185 120.868 242.201 121.162 241.025 121.162C240.077 121.162 239.237 120.952 238.505 120.532C237.773 120.1 237.197 119.5 236.777 118.732C236.369 117.952 236.165 117.052 236.165 116.032ZM257.344 111.082V121H255.292V119.83C254.968 120.238 254.542 120.562 254.014 120.802C253.498 121.03 252.946 121.144 252.358 121.144C251.578 121.144 250.876 120.982 250.252 120.658C249.64 120.334 249.154 119.854 248.794 119.218C248.446 118.582 248.272 117.814 248.272 116.914V111.082H250.306V116.608C250.306 117.496 250.528 118.18 250.972 118.66C251.416 119.128 252.022 119.362 252.79 119.362C253.558 119.362 254.164 119.128 254.608 118.66C255.064 118.18 255.292 117.496 255.292 116.608V111.082H257.344ZM262.823 112.522C263.123 112.018 263.519 111.628 264.011 111.352C264.515 111.064 265.109 110.92 265.793 110.92V113.044H265.271C264.467 113.044 263.855 113.248 263.435 113.656C263.027 114.064 262.823 114.772 262.823 115.78V121H260.771V111.082H262.823V112.522ZM269.444 109.768C269.072 109.768 268.76 109.642 268.508 109.39C268.256 109.138 268.13 108.826 268.13 108.454C268.13 108.082 268.256 107.77 268.508 107.518C268.76 107.266 269.072 107.14 269.444 107.14C269.804 107.14 270.11 107.266 270.362 107.518C270.614 107.77 270.74 108.082 270.74 108.454C270.74 108.826 270.614 109.138 270.362 109.39C270.11 109.642 269.804 109.768 269.444 109.768ZM270.452 111.082V121H268.4V111.082H270.452ZM278.87 110.92C279.65 110.92 280.346 111.082 280.958 111.406C281.582 111.73 282.068 112.21 282.416 112.846C282.764 113.482 282.938 114.25 282.938 115.15V121H280.904V115.456C280.904 114.568 280.682 113.89 280.238 113.422C279.794 112.942 279.188 112.702 278.42 112.702C277.652 112.702 277.04 112.942 276.584 113.422C276.14 113.89 275.918 114.568 275.918 115.456V121H273.866V111.082H275.918V112.216C276.254 111.808 276.68 111.49 277.196 111.262C277.724 111.034 278.282 110.92 278.87 110.92ZM290.271 110.92C291.039 110.92 291.717 111.076 292.305 111.388C292.905 111.688 293.373 112.066 293.709 112.522V111.082H295.779V121.162C295.779 122.074 295.587 122.884 295.203 123.592C294.819 124.312 294.261 124.876 293.529 125.284C292.809 125.692 291.945 125.896 290.937 125.896C289.593 125.896 288.477 125.578 287.589 124.942C286.701 124.318 286.197 123.466 286.077 122.386H288.111C288.267 122.902 288.597 123.316 289.101 123.628C289.617 123.952 290.229 124.114 290.937 124.114C291.765 124.114 292.431 123.862 292.935 123.358C293.451 122.854 293.709 122.122 293.709 121.162V119.506C293.361 119.974 292.887 120.37 292.287 120.694C291.699 121.006 291.027 121.162 290.271 121.162C289.407 121.162 288.615 120.946 287.895 120.514C287.187 120.07 286.623 119.458 286.203 118.678C285.795 117.886 285.591 116.992 285.591 115.996C285.591 115 285.795 114.118 286.203 113.35C286.623 112.582 287.187 111.988 287.895 111.568C288.615 111.136 289.407 110.92 290.271 110.92ZM293.709 116.032C293.709 115.348 293.565 114.754 293.277 114.25C293.001 113.746 292.635 113.362 292.179 113.098C291.723 112.834 291.231 112.702 290.703 112.702C290.175 112.702 289.683 112.834 289.227 113.098C288.771 113.35 288.399 113.728 288.111 114.232C287.835 114.724 287.697 115.312 287.697 115.996C287.697 116.68 287.835 117.28 288.111 117.796C288.399 118.312 288.771 118.708 289.227 118.984C289.695 119.248 290.187 119.38 290.703 119.38C291.231 119.38 291.723 119.248 292.179 118.984C292.635 118.72 293.001 118.336 293.277 117.832C293.565 117.316 293.709 116.716 293.709 116.032ZM317.766 108.49V121H315.714V112.432L311.898 121H310.476L306.642 112.432V121H304.59V108.49H306.804L311.196 118.3L315.57 108.49H317.766ZM330.273 115.798C330.273 116.17 330.249 116.506 330.201 116.806H322.623C322.683 117.598 322.977 118.234 323.505 118.714C324.033 119.194 324.681 119.434 325.449 119.434C326.553 119.434 327.333 118.972 327.789 118.048H330.003C329.703 118.96 329.157 119.71 328.365 120.298C327.585 120.874 326.613 121.162 325.449 121.162C324.501 121.162 323.649 120.952 322.893 120.532C322.149 120.1 321.561 119.5 321.129 118.732C320.709 117.952 320.499 117.052 320.499 116.032C320.499 115.012 320.703 114.118 321.111 113.35C321.531 112.57 322.113 111.97 322.857 111.55C323.613 111.13 324.477 110.92 325.449 110.92C326.385 110.92 327.219 111.124 327.951 111.532C328.683 111.94 329.253 112.516 329.661 113.26C330.069 113.992 330.273 114.838 330.273 115.798ZM328.131 115.15C328.119 114.394 327.849 113.788 327.321 113.332C326.793 112.876 326.139 112.648 325.359 112.648C324.651 112.648 324.045 112.876 323.541 113.332C323.037 113.776 322.737 114.382 322.641 115.15H328.131ZM345.019 110.92C345.799 110.92 346.495 111.082 347.107 111.406C347.731 111.73 348.217 112.21 348.565 112.846C348.925 113.482 349.105 114.25 349.105 115.15V121H347.071V115.456C347.071 114.568 346.849 113.89 346.405 113.422C345.961 112.942 345.355 112.702 344.587 112.702C343.819 112.702 343.207 112.942 342.751 113.422C342.307 113.89 342.085 114.568 342.085 115.456V121H340.051V115.456C340.051 114.568 339.829 113.89 339.385 113.422C338.941 112.942 338.335 112.702 337.567 112.702C336.799 112.702 336.187 112.942 335.731 113.422C335.287 113.89 335.065 114.568 335.065 115.456V121H333.013V111.082H335.065V112.216C335.401 111.808 335.827 111.49 336.343 111.262C336.859 111.034 337.411 110.92 337.999 110.92C338.791 110.92 339.499 111.088 340.123 111.424C340.747 111.76 341.227 112.246 341.563 112.882C341.863 112.282 342.331 111.808 342.967 111.46C343.603 111.1 344.287 110.92 345.019 110.92ZM356.738 121.162C355.802 121.162 354.956 120.952 354.2 120.532C353.444 120.1 352.85 119.5 352.418 118.732C351.986 117.952 351.77 117.052 351.77 116.032C351.77 115.024 351.992 114.13 352.436 113.35C352.88 112.57 353.486 111.97 354.254 111.55C355.022 111.13 355.88 110.92 356.828 110.92C357.776 110.92 358.634 111.13 359.402 111.55C360.17 111.97 360.776 112.57 361.22 113.35C361.664 114.13 361.886 115.024 361.886 116.032C361.886 117.04 361.658 117.934 361.202 118.714C360.746 119.494 360.122 120.1 359.33 120.532C358.55 120.952 357.686 121.162 356.738 121.162ZM356.738 119.38C357.266 119.38 357.758 119.254 358.214 119.002C358.682 118.75 359.06 118.372 359.348 117.868C359.636 117.364 359.78 116.752 359.78 116.032C359.78 115.312 359.642 114.706 359.366 114.214C359.09 113.71 358.724 113.332 358.268 113.08C357.812 112.828 357.32 112.702 356.792 112.702C356.264 112.702 355.772 112.828 355.316 113.08C354.872 113.332 354.518 113.71 354.254 114.214C353.99 114.706 353.858 115.312 353.858 116.032C353.858 117.1 354.128 117.928 354.668 118.516C355.22 119.092 355.91 119.38 356.738 119.38ZM366.686 112.522C366.986 112.018 367.382 111.628 367.874 111.352C368.378 111.064 368.972 110.92 369.656 110.92V113.044H369.134C368.33 113.044 367.718 113.248 367.298 113.656C366.89 114.064 366.686 114.772 366.686 115.78V121H364.634V111.082H366.686V112.522ZM373.306 109.768C372.934 109.768 372.622 109.642 372.37 109.39C372.118 109.138 371.992 108.826 371.992 108.454C371.992 108.082 372.118 107.77 372.37 107.518C372.622 107.266 372.934 107.14 373.306 107.14C373.666 107.14 373.972 107.266 374.224 107.518C374.476 107.77 374.602 108.082 374.602 108.454C374.602 108.826 374.476 109.138 374.224 109.39C373.972 109.642 373.666 109.768 373.306 109.768ZM374.314 111.082V121H372.262V111.082H374.314ZM386.818 115.798C386.818 116.17 386.794 116.506 386.746 116.806H379.168C379.228 117.598 379.522 118.234 380.05 118.714C380.578 119.194 381.226 119.434 381.994 119.434C383.098 119.434 383.878 118.972 384.334 118.048H386.548C386.248 118.96 385.702 119.71 384.91 120.298C384.13 120.874 383.158 121.162 381.994 121.162C381.046 121.162 380.194 120.952 379.438 120.532C378.694 120.1 378.106 119.5 377.674 118.732C377.254 117.952 377.044 117.052 377.044 116.032C377.044 115.012 377.248 114.118 377.656 113.35C378.076 112.57 378.658 111.97 379.402 111.55C380.158 111.13 381.022 110.92 381.994 110.92C382.93 110.92 383.764 111.124 384.496 111.532C385.228 111.94 385.798 112.516 386.206 113.26C386.614 113.992 386.818 114.838 386.818 115.798ZM384.676 115.15C384.664 114.394 384.394 113.788 383.866 113.332C383.338 112.876 382.684 112.648 381.904 112.648C381.196 112.648 380.59 112.876 380.086 113.332C379.582 113.776 379.282 114.382 379.186 115.15H384.676ZM393.158 121.162C392.378 121.162 391.676 121.024 391.052 120.748C390.44 120.46 389.954 120.076 389.594 119.596C389.234 119.104 389.042 118.558 389.018 117.958H391.142C391.178 118.378 391.376 118.732 391.736 119.02C392.108 119.296 392.57 119.434 393.122 119.434C393.698 119.434 394.142 119.326 394.454 119.11C394.778 118.882 394.94 118.594 394.94 118.246C394.94 117.874 394.76 117.598 394.4 117.418C394.052 117.238 393.494 117.04 392.726 116.824C391.982 116.62 391.376 116.422 390.908 116.23C390.44 116.038 390.032 115.744 389.684 115.348C389.348 114.952 389.18 114.43 389.18 113.782C389.18 113.254 389.336 112.774 389.648 112.342C389.96 111.898 390.404 111.55 390.98 111.298C391.568 111.046 392.24 110.92 392.996 110.92C394.124 110.92 395.03 111.208 395.714 111.784C396.41 112.348 396.782 113.122 396.83 114.106H394.778C394.742 113.662 394.562 113.308 394.238 113.044C393.914 112.78 393.476 112.648 392.924 112.648C392.384 112.648 391.97 112.75 391.682 112.954C391.394 113.158 391.25 113.428 391.25 113.764C391.25 114.028 391.346 114.25 391.538 114.43C391.73 114.61 391.964 114.754 392.24 114.862C392.516 114.958 392.924 115.084 393.464 115.24C394.184 115.432 394.772 115.63 395.228 115.834C395.696 116.026 396.098 116.314 396.434 116.698C396.77 117.082 396.944 117.592 396.956 118.228C396.956 118.792 396.8 119.296 396.488 119.74C396.176 120.184 395.732 120.532 395.156 120.784C394.592 121.036 393.926 121.162 393.158 121.162ZM400.721 121.126C400.349 121.126 400.037 121 399.785 120.748C399.533 120.496 399.407 120.184 399.407 119.812C399.407 119.44 399.533 119.128 399.785 118.876C400.037 118.624 400.349 118.498 400.721 118.498C401.081 118.498 401.387 118.624 401.639 118.876C401.891 119.128 402.017 119.44 402.017 119.812C402.017 120.184 401.891 120.496 401.639 120.748C401.387 121 401.081 121.126 400.721 121.126Z" fill="white"/>
</svg>
